<svg xmlns="http://www.w3.org/2000/svg" width="120" height="120" viewBox="-10 -10 94 83" fill="none">
<rect x="-10" y="-10" width="94" height="83" rx="12" fill="white"/>
<g clip-path="url(#clip0_8_373)">
<path d="M9.43673 49.5456H18.5288V60.4547C18.5288 61.1535 18.9311 61.791 19.5584 62.0944C19.8106 62.2137 20.08 62.2751 20.3459 62.2751C20.7515 62.2751 21.1538 62.1387 21.4811 61.8762L36.8734 49.5455H44.8166C45.8188 49.5455 46.6336 48.7307 46.6336 47.7285C46.6336 46.7262 45.8189 45.9114 44.8166 45.9114H36.236C35.8234 45.9114 35.4212 46.0546 35.1007 46.3103L22.1634 56.6704V47.7285C22.1634 46.7262 21.3486 45.9115 20.3464 45.9115H9.43729C6.43048 45.9115 3.98274 43.4637 3.98274 40.4569V9.54666C3.98274 6.53986 6.43048 4.09212 9.43729 4.09212H56.7112C59.718 4.09212 62.1657 6.53986 62.1657 9.54666V22.6376C62.1657 23.6398 62.9805 24.4546 63.9827 24.4546C64.985 24.4546 65.7998 23.6398 65.7998 22.6376V9.54666C65.7998 4.53529 61.7225 0.45459 56.7077 0.45459H9.43729C4.42591 0.45459 0.345215 4.53188 0.345215 9.54666V40.4569C0.345215 45.4683 4.42251 49.549 9.43729 49.549L9.43673 49.5456Z" fill="black"/>
<path d="M62.0971 29.0636C61.8789 28.2761 61.163 27.7307 60.3448 27.7307C59.5267 27.7307 58.8108 28.2762 58.5926 29.0636C56.7585 35.7012 55.5892 36.8704 48.9516 38.7046C48.1641 38.9228 47.6187 39.6387 47.6187 40.4569C47.6187 41.2751 48.1641 41.991 48.9516 42.2092C55.5891 44.0433 56.7584 45.2126 58.5926 51.8502C58.8108 52.6377 59.5267 53.1831 60.3448 53.1831C61.163 53.1831 61.8789 52.6376 62.0971 51.8502C63.9312 45.2127 65.1005 44.0434 71.7381 42.2092C72.5256 41.991 73.071 41.2751 73.071 40.4569C73.071 39.6387 72.5256 38.9228 71.7381 38.7046C65.1006 36.8705 63.9313 35.7012 62.0971 29.0636ZM60.3448 45.8872C59.1039 43.2826 57.5153 41.694 54.9107 40.4531C57.5153 39.2121 59.1039 37.6235 60.3448 35.0189C61.5858 37.6235 63.1744 39.2121 65.779 40.4531C63.1744 41.694 61.5858 43.2826 60.3448 45.8872Z" fill="black"/>
<path d="M13.0743 15.0012H53.0732C54.0754 15.0012 54.8902 14.1864 54.8902 13.1842C54.8902 12.182 54.0754 11.3672 53.0732 11.3672L13.0743 11.3638C12.0721 11.3638 11.2573 12.1785 11.2573 13.1808C11.2573 14.183 12.0721 14.9978 13.0743 14.9978V15.0012Z" fill="black"/>
<path d="M54.8902 24.0931C54.8902 23.0909 54.0754 22.2761 53.0732 22.2761L13.0743 22.2727C12.0721 22.2727 11.2573 23.0875 11.2573 24.0897C11.2573 25.092 12.0721 25.9067 13.0743 25.9067H53.0732C54.0754 25.9067 54.8902 25.092 54.8902 24.0897V24.0931Z" fill="black"/>
<path d="M13.0743 33.1819C12.0721 33.1819 11.2573 33.9967 11.2573 34.9989C11.2573 36.0011 12.0721 36.8159 13.0743 36.8159H42.1641C43.1663 36.8159 43.9811 36.0012 43.9811 34.9989C43.9811 33.9967 43.1663 33.1819 42.1641 33.1819H13.0743Z" fill="black"/>
</g>
<defs>
<clipPath id="clip0_8_373">
<rect width="74" height="63" fill="white"/>
</clipPath>
</defs>
</svg>
